<svg width="20" height="20" viewBox="0 0 20 20" fill="none" xmlns="http://www.w3.org/2000/svg">
<path d="M17.9805 5.51085L14.4891 2.02022C14.1961 1.7273 13.7987 1.56274 13.3844 1.56274C12.9701 1.56274 12.5727 1.7273 12.2797 2.02022L2.64532 11.6538C2.49973 11.7985 2.3843 11.9707 2.30571 12.1603C2.22713 12.3499 2.18695 12.5532 2.18751 12.7585V16.2499C2.18751 16.6643 2.35213 17.0617 2.64515 17.3548C2.93818 17.6478 3.33561 17.8124 3.75001 17.8124H16.875C17.1236 17.8124 17.3621 17.7136 17.5379 17.5378C17.7137 17.362 17.8125 17.1236 17.8125 16.8749C17.8125 16.6263 17.7137 16.3878 17.5379 16.212C17.3621 16.0362 17.1236 15.9374 16.875 15.9374H9.76563L17.9805 7.721C18.1256 7.5759 18.2408 7.40363 18.3193 7.21402C18.3979 7.0244 18.4383 6.82117 18.4383 6.61593C18.4383 6.41068 18.3979 6.20745 18.3193 6.01784C18.2408 5.82822 18.1256 5.65595 17.9805 5.51085ZM7.10938 15.9374H4.06251V12.8905L10.625 6.32804L13.6719 9.37491L7.10938 15.9374ZM15 8.04679L11.9531 4.99991L13.3859 3.5671L16.4328 6.61397L15 8.04679Z" fill="#525252"/>
</svg>
