<svg width="20" height="20" viewBox="0 0 20 20" fill="none" xmlns="http://www.w3.org/2000/svg">
<path d="M17.9797 5.51104L14.4891 2.01964C14.344 1.87448 14.1717 1.75933 13.9821 1.68077C13.7925 1.6022 13.5892 1.56177 13.384 1.56177C13.1787 1.56177 12.9755 1.6022 12.7859 1.68077C12.5963 1.75933 12.424 1.87448 12.2789 2.01964L2.64532 11.654C2.4997 11.7987 2.38424 11.9708 2.30565 12.1605C2.22707 12.3501 2.18691 12.5534 2.18751 12.7587V16.2501C2.18751 16.6645 2.35213 17.0619 2.64515 17.355C2.93818 17.648 3.33561 17.8126 3.75001 17.8126H7.24141C7.44668 17.8132 7.65001 17.773 7.83963 17.6944C8.02926 17.6158 8.2014 17.5004 8.3461 17.3548L17.9797 7.72042C18.2726 7.42741 18.4372 7.03005 18.4372 6.61573C18.4372 6.20141 18.2726 5.80405 17.9797 5.51104ZM7.10938 15.9376H4.06251V12.8907L10.625 6.32823L13.6719 9.3751L7.10938 15.9376ZM15 8.04698L11.9531 5.00011L13.3859 3.56729L16.4328 6.61417L15 8.04698Z" fill="#525252"/>
</svg>
