<svg width="20" height="20" viewBox="0 0 20 20" fill="none" xmlns="http://www.w3.org/2000/svg">
<path d="M17.8125 11.25V16.25C17.8125 16.4986 17.7137 16.7371 17.5379 16.9129C17.3621 17.0887 17.1236 17.1875 16.875 17.1875H3.125C2.87636 17.1875 2.6379 17.0887 2.46209 16.9129C2.28627 16.7371 2.1875 16.4986 2.1875 16.25V11.25C2.1875 11.0014 2.28627 10.7629 2.46209 10.5871C2.6379 10.4113 2.87636 10.3125 3.125 10.3125C3.37364 10.3125 3.6121 10.4113 3.78791 10.5871C3.96373 10.7629 4.0625 11.0014 4.0625 11.25V15.3125H15.9375V11.25C15.9375 11.0014 16.0363 10.7629 16.2121 10.5871C16.3879 10.4113 16.6264 10.3125 16.875 10.3125C17.1236 10.3125 17.3621 10.4113 17.5379 10.5871C17.7137 10.7629 17.8125 11.0014 17.8125 11.25ZM7.53828 6.28829L9.0625 4.76563V11.25C9.0625 11.4986 9.16127 11.7371 9.33709 11.9129C9.5129 12.0887 9.75136 12.1875 10 12.1875C10.2486 12.1875 10.4871 12.0887 10.6629 11.9129C10.8387 11.7371 10.9375 11.4986 10.9375 11.25V4.76563L12.4617 6.29063C12.5489 6.37784 12.6525 6.44701 12.7664 6.49421C12.8803 6.5414 13.0025 6.5657 13.1258 6.5657C13.2491 6.5657 13.3712 6.5414 13.4852 6.49421C13.5991 6.44701 13.7026 6.37784 13.7898 6.29063C13.877 6.20343 13.9462 6.0999 13.9934 5.98596C14.0406 5.87202 14.0649 5.7499 14.0649 5.62657C14.0649 5.50324 14.0406 5.38112 13.9934 5.26718C13.9462 5.15324 13.877 5.04971 13.7898 4.96251L10.6648 1.83751C10.5777 1.75011 10.4743 1.68076 10.3603 1.63344C10.2463 1.58612 10.1242 1.56177 10.0008 1.56177C9.87739 1.56177 9.75522 1.58612 9.64126 1.63344C9.52731 1.68076 9.42382 1.75011 9.33672 1.83751L6.21172 4.96251C6.12451 5.04971 6.05534 5.15324 6.00814 5.26718C5.96095 5.38112 5.93665 5.50324 5.93665 5.62657C5.93665 5.87564 6.0356 6.11451 6.21172 6.29063C6.38784 6.46675 6.62671 6.5657 6.87578 6.5657C7.12485 6.5657 7.36372 6.46675 7.53984 6.29063L7.53828 6.28829Z" fill="#797979"/>
</svg>
