<svg width="48" height="48" viewBox="0 0 48 48" fill="none" xmlns="http://www.w3.org/2000/svg">
<path d="M20.7562 9.19126C21.2989 9.19207 21.8371 9.28854 22.3462 9.47626L31.5412 12.8513C31.6201 12.8804 31.6956 12.9181 31.7662 12.9638C33.0583 13.4111 34.1649 14.2754 34.9117 15.4208C35.6585 16.5661 36.0031 17.9273 35.8912 19.29C35.7869 20.5823 35.2688 21.8066 34.4137 22.7813C34.8803 22.9696 35.3223 23.2139 35.73 23.5088C36.6562 24.1725 37.3804 25.0798 37.8224 26.13C38.2644 27.1802 38.4069 28.3323 38.2341 29.4585C38.0613 30.5848 37.5799 31.6412 36.8433 32.5105C36.1068 33.3799 35.1438 34.0283 34.0612 34.3838L21.2775 38.5838C20.2921 38.9107 19.2247 38.8922 18.2512 38.5313L10.5 35.5875C10.2712 35.5017 10.0742 35.3479 9.93538 35.1468C9.7966 34.9457 9.72275 34.7069 9.72375 34.4625V13.5638V13.5C9.72375 13.4625 9.72375 13.425 9.72375 13.3875C9.72557 13.3763 9.72557 13.3649 9.72375 13.3538C9.72375 13.32 9.72375 13.2863 9.7425 13.2525C9.74425 13.2413 9.74425 13.2299 9.7425 13.2188C9.76587 13.1335 9.79726 13.0506 9.83625 12.9713C9.84389 12.9608 9.85019 12.9495 9.855 12.9375L9.9075 12.855L9.93 12.8213L9.99375 12.7425V12.7163C10.0544 12.6476 10.1238 12.5871 10.2 12.5363C10.2312 12.5153 10.2638 12.4965 10.2975 12.48L10.3275 12.4613L10.4212 12.42H10.455H10.4812L19.2337 9.45376C19.7079 9.29605 20.2041 9.21503 20.7037 9.21376M19.7475 15.585L26.2237 13.4588L21.5175 11.7263C21.277 11.6389 21.0234 11.5933 20.7675 11.5913C20.5301 11.5905 20.2943 11.6298 20.07 11.7075L14.4937 13.5825L19.7437 15.5738M20.97 36.15L33.3 32.0963C33.9627 31.8827 34.5529 31.4888 35.0044 30.9588C35.4559 30.4287 35.7509 29.7834 35.8564 29.0952C35.9619 28.407 35.8737 27.703 35.6017 27.062C35.3296 26.4211 34.8846 25.8685 34.3162 25.4663C33.6804 25.0017 32.9137 24.751 32.1262 24.75C31.7184 24.75 31.3132 24.8159 30.9262 24.945C30.8057 24.987 30.6789 25.0085 30.5512 25.0088H30.375C30.091 25.0047 29.8177 24.8997 29.604 24.7126C29.3903 24.5254 29.2502 24.2684 29.2087 23.9874C29.1672 23.7064 29.2271 23.4198 29.3775 23.1789C29.528 22.938 29.7593 22.7585 30.03 22.6725L30.75 22.4363C31.4794 22.21 32.1272 21.7765 32.6146 21.1885C33.1019 20.6006 33.4078 19.8837 33.495 19.125C33.538 18.6059 33.473 18.0836 33.3042 17.5909C33.1353 17.0982 32.8663 16.6458 32.514 16.2621C32.1618 15.8785 31.7339 15.572 31.2573 15.3619C30.7807 15.1517 30.2658 15.0426 29.745 15.0413C29.3423 15.0416 28.9423 15.1062 28.56 15.2325L20.97 17.7075V36.15ZM18.57 36.0825V17.7075L12.12 15.33V33.6375L18.57 36.0825ZM20.7562 6.94126C20.0142 6.94057 19.277 7.0609 18.5737 7.29751L9.81375 10.2638L9.735 10.29L9.67875 10.3163H9.645C9.54375 10.3538 9.4575 10.395 9.37125 10.4363L9.27375 10.4888L9.07125 10.605L9.03 10.6313L8.955 10.68L8.91 10.7138C8.70207 10.8698 8.51327 11.0498 8.3475 11.25L8.31375 11.2838L8.28375 11.3213C8.2275 11.3888 8.17125 11.46 8.11875 11.5313L8.04375 11.64C7.995 11.715 7.95 11.79 7.90875 11.8688C7.89112 11.8954 7.87485 11.923 7.86 11.9513C7.74359 12.1779 7.65303 12.4169 7.59 12.6638C7.59 12.6975 7.57125 12.735 7.56375 12.7763C7.55625 12.8175 7.52625 12.9563 7.515 13.0463V13.155C7.50446 13.2384 7.4982 13.3222 7.49625 13.4063C7.49625 13.4438 7.49625 13.4813 7.49625 13.5225V34.4663C7.49857 35.1658 7.7126 35.8483 8.11018 36.424C8.50777 36.9996 9.07029 37.4414 9.72375 37.6913L17.4712 40.6275C18.9191 41.1624 20.5056 41.1902 21.9712 40.7063L34.755 36.5063C36.4364 35.9519 37.8999 34.881 38.9369 33.446C39.9738 32.0111 40.5314 30.2854 40.53 28.515C40.5363 27.2806 40.2676 26.0603 39.7435 24.9427C39.2194 23.8251 38.453 22.8383 37.5 22.0538C37.8502 21.2353 38.0643 20.3651 38.1337 19.4775C38.2802 17.656 37.8299 15.8363 36.8511 14.2932C35.8722 12.7501 34.4178 11.5674 32.7075 10.9238C32.5859 10.8592 32.4607 10.8016 32.3325 10.7513L23.1375 7.37626C22.3802 7.09535 21.5789 6.95185 20.7712 6.95251L20.7562 6.94126Z" fill="#0433FF"/>
<path d="M9.75001 13.2675C9.75001 13.3013 9.75001 13.335 9.73126 13.3688C9.73308 13.3799 9.73308 13.3913 9.73126 13.4025C9.73126 13.44 9.73126 13.4775 9.73126 13.515V13.56V34.4663C9.73026 34.7106 9.80411 34.9494 9.94289 35.1505C10.0817 35.3517 10.2787 35.5055 10.5075 35.5913L18.255 38.5275C19.2285 38.8884 20.2959 38.907 21.2813 38.58L34.065 34.38C35.2642 33.9808 36.312 33.2231 37.0667 32.2093C37.8214 31.1955 38.2467 29.9745 38.2852 28.7112C38.3236 27.4479 37.9733 26.2032 37.2816 25.1454C36.59 24.0876 35.5902 23.2676 34.4175 22.7963C35.2725 21.8216 35.7906 20.5973 35.895 19.305C36.0069 17.9423 35.6622 16.5811 34.9154 15.4358C34.1686 14.2904 33.0621 13.4261 31.77 12.9788C31.6994 12.9331 31.6239 12.8954 31.545 12.8663L22.35 9.49125C21.8409 9.30354 21.3026 9.20706 20.76 9.20625C20.2604 9.20752 19.7641 9.28854 19.29 9.44625L10.5338 12.3975H10.5075H10.4738L10.38 12.4388L10.35 12.4575C10.3163 12.474 10.2837 12.4928 10.2525 12.5138C10.1763 12.5646 10.1069 12.6251 10.0463 12.6938V12.72L9.98251 12.7988L9.96001 12.8325L9.90751 12.915C9.9027 12.927 9.8964 12.9383 9.88876 12.9488C9.84978 13.0281 9.81839 13.111 9.79501 13.1963C9.79262 13.2105 9.78742 13.2242 9.77969 13.2364C9.77196 13.2486 9.76187 13.2592 9.75001 13.2675ZM29.7375 15.03C30.26 15.0302 30.7768 15.1389 31.255 15.3492C31.7333 15.5596 32.1627 15.867 32.516 16.2519C32.8692 16.6369 33.1386 17.0911 33.3072 17.5857C33.4757 18.0802 33.5397 18.6044 33.495 19.125C33.4078 19.8837 33.1019 20.6006 32.6146 21.1885C32.1272 21.7765 31.4794 22.21 30.75 22.4363L30.0638 22.665C29.7952 22.7496 29.565 22.9263 29.4139 23.1639C29.2627 23.4015 29.2002 23.6848 29.2374 23.964C29.2746 24.2431 29.4091 24.5002 29.6172 24.6899C29.8253 24.8797 30.0936 24.9899 30.375 25.0013H30.555C30.6827 25.001 30.8094 24.9795 30.93 24.9375C31.3169 24.8084 31.7221 24.7425 32.13 24.7425C33.1263 24.7494 34.0795 25.1498 34.7819 25.8564C35.4844 26.5631 35.879 27.5187 35.88 28.515C35.8823 29.3068 35.6339 30.079 35.1705 30.7209C34.707 31.3629 34.0523 31.8417 33.3 32.0888L20.97 36.15V17.7075L28.5525 15.2213C28.9348 15.0949 29.3349 15.0304 29.7375 15.03ZM20.055 11.7075C20.2793 11.6298 20.5151 11.5905 20.7525 11.5913C21.0084 11.5933 21.262 11.6389 21.5025 11.7263L26.2088 13.4588L19.7475 15.585L14.4975 13.5938L20.055 11.7075ZM12.12 15.3338L18.57 17.7113V36.0863L12.12 33.6375V15.3338Z" fill="white"/>
</svg>
